<svg xmlns="http://www.w3.org/2000/svg" viewBox="0 0 64 64">
  <defs>
    <radialGradient id="g1" cx="50%" cy="50%" r="70%">
      <stop offset="0%" stop-color="#ffcc4d"/>
      <stop offset="100%" stop-color="#f59e0b"/>
    </radialGradient>
    <radialGradient id="g2" cx="50%" cy="50%" r="70%">
      <stop offset="0%" stop-color="#f472b6"/>
      <stop offset="100%" stop-color="#db2777"/>
    </radialGradient>
    <radialGradient id="g3" cx="50%" cy="50%" r="70%">
      <stop offset="0%" stop-color="#a78bfa"/>
      <stop offset="100%" stop-color="#7c3aed"/>
    </radialGradient>
    <radialGradient id="g4" cx="50%" cy="50%" r="70%">
      <stop offset="0%" stop-color="#60a5fa"/>
      <stop offset="100%" stop-color="#2563eb"/>
    </radialGradient>
    <radialGradient id="g5" cx="50%" cy="50%" r="70%">
      <stop offset="0%" stop-color="#22d3ee"/>
      <stop offset="100%" stop-color="#0891b2"/>
    </radialGradient>
    <radialGradient id="g6" cx="50%" cy="50%" r="70%">
      <stop offset="0%" stop-color="#86efac"/>
      <stop offset="100%" stop-color="#16a34a"/>
    </radialGradient>
    <radialGradient id="g7" cx="50%" cy="50%" r="70%">
      <stop offset="0%" stop-color="#fde047"/>
      <stop offset="100%" stop-color="#eab308"/>
    </radialGradient>
    <radialGradient id="g8" cx="50%" cy="50%" r="70%">
      <stop offset="0%" stop-color="#fb7185"/>
      <stop offset="100%" stop-color="#e11d48"/>
    </radialGradient>
  </defs>

  <rect width="64" height="64" fill="#05070d"/>

  <g transform="translate(32,32)">
    <g transform="rotate(0)"><path d="M0,-26 C8,-26 16,-21 19,-14 C16,-7 8,-3 0,-3 C-1,-10 -1,-19 0,-26Z" fill="url(#g1)"/></g>
    <g transform="rotate(45)"><path d="M0,-26 C8,-26 16,-21 19,-14 C16,-7 8,-3 0,-3 C-1,-10 -1,-19 0,-26Z" fill="url(#g2)"/></g>
    <g transform="rotate(90)"><path d="M0,-26 C8,-26 16,-21 19,-14 C16,-7 8,-3 0,-3 C-1,-10 -1,-19 0,-26Z" fill="url(#g3)"/></g>
    <g transform="rotate(135)"><path d="M0,-26 C8,-26 16,-21 19,-14 C16,-7 8,-3 0,-3 C-1,-10 -1,-19 0,-26Z" fill="url(#g4)"/></g>
    <g transform="rotate(180)"><path d="M0,-26 C8,-26 16,-21 19,-14 C16,-7 8,-3 0,-3 C-1,-10 -1,-19 0,-26Z" fill="url(#g5)"/></g>
    <g transform="rotate(225)"><path d="M0,-26 C8,-26 16,-21 19,-14 C16,-7 8,-3 0,-3 C-1,-10 -1,-19 0,-26Z" fill="url(#g6)"/></g>
    <g transform="rotate(270)"><path d="M0,-26 C8,-26 16,-21 19,-14 C16,-7 8,-3 0,-3 C-1,-10 -1,-19 0,-26Z" fill="url(#g7)"/></g>
    <g transform="rotate(315)"><path d="M0,-26 C8,-26 16,-21 19,-14 C16,-7 8,-3 0,-3 C-1,-10 -1,-19 0,-26Z" fill="url(#g8)"/></g>
    <circle r="8.2" fill="#05070d"/>
  </g>
</svg>
